# xmcd CD database file generated by GCD 2.95
# 
# Track frame offsets:
#       150
#       16809
#       34922
#       49790
#       65262
#       78728
#       95402
#       110031
#       128333
#       138825
#       153676
#       164781
#       172811
#       183676
#       195268
#       212296
#       229886
#       248229
#       266609
#       274504
#       287416
#       300850
#       316372
#       325277
#       336656
# 
# Disc length: 4754 seconds
# 
# Revision: 3
# Processed by: cddbd v1.4PL0 Copyright (c) Steve Scherf et al.
# Submitted via: GCD 2.95
# 
DISCID=5e129019
DTITLE=Hank Williams III - Beachland Ballroom 11/20/2002
DYEAR=1900
DGENRE=
TTITLE0=Nighttime Ramblin Man
TTITLE1=7 Months and 39 Days
TTITLE2=I Don't Know
TTITLE3=Drink It, Drug It
TTITLE4=One Horse Town
TTITLE5=Trashville
TTITLE6=Why Don't You Leave Me Alone
TTITLE7=Mississippi Mud
TTITLE8=Lowdown Truck Driver
TTITLE9=If The Shoe Fits
TTITLE10=Thrown Out of Every Bar
TTITLE11=You Never Called Me By My Name
TTITLE12=If You Don't Like Hank Williams
TTITLE13=Move It On Over
TTITLE14=Whiskey Bent and Hell Bound
TTITLE15=Long Black Veil
TTITLE16=Cocaine Blues
TTITLE17=Wine Spodeeodee
TTITLE18=Cecil Brown
TTITLE19=Straight To Hell
TTITLE20=Six Pack of Beer
TTITLE21=The Devil Is My Friend
TTITLE22=Lovin and Huggin
TTITLE23=Walkin' in Sorrow
TTITLE24=Dick in Dixie
EXTD=
EXTT0=
EXTT1=
EXTT2=
EXTT3=
EXTT4=
EXTT5=
EXTT6=
EXTT7=
EXTT8=
EXTT9=
EXTT10=
EXTT11=
EXTT12=
EXTT13=
EXTT14=
EXTT15=
EXTT16=
EXTT17=
EXTT18=
EXTT19=
EXTT20=
EXTT21=
EXTT22=
EXTT23=
EXTT24=
PLAYORDER=
